<svg width="57" height="57" viewBox="0 0 57 57" fill="none" xmlns="http://www.w3.org/2000/svg">
<g clip-path="url(#clip0)">
<path d="M48.5257 34.2267L34.0261 48.739C33.7177 49.0485 33.5445 49.4677 33.5445 49.9047C33.5445 50.3418 33.7177 50.761 34.0261 51.0704L35.9455 53.0008C36.3192 53.3743 36.806 53.6132 37.3298 53.6801C37.8536 53.7471 38.3847 53.6383 38.8402 53.3708L44.6698 49.9514L51.1812 56.4684C51.5251 56.8126 51.9916 57.0059 52.4779 57.0059C52.9642 57.0059 53.4307 56.8126 53.7746 56.4684L56.2422 53.9987C56.586 53.6545 56.7792 53.1876 56.7792 52.7009C56.7792 52.2141 56.586 51.7473 56.2422 51.403L49.7308 44.886L53.1472 39.0512C53.4145 38.5954 53.5232 38.0638 53.4563 37.5395C53.3894 37.0153 53.1507 36.528 52.7776 36.154L50.8567 34.233C50.5483 33.923 50.1295 33.7482 49.6925 33.7471C49.2554 33.7459 48.8358 33.9184 48.5257 34.2267Z" fill="white"/>
<path d="M10.3813 1.6522L1.81228 0.138335C1.56886 0.0953233 1.31868 0.111449 1.08278 0.185356C0.846884 0.259263 0.63217 0.38879 0.456702 0.563041C0.281233 0.737292 0.15014 0.951171 0.0744515 1.18669C-0.00123743 1.4222 -0.0193091 1.67247 0.0217566 1.91643L1.47995 10.5691L34.2963 43.4063L43.1976 34.505L10.3813 1.6522Z" fill="white"/>
<path d="M55.2002 0.0217601L46.5628 1.48123L30.914 17.1437L39.8154 26.0528L55.4642 10.3903L56.9767 1.81384C57.0197 1.57021 57.0036 1.31981 56.9297 1.08371C56.8559 0.847607 56.7265 0.632707 56.5524 0.457085C56.3783 0.281463 56.1646 0.150256 55.9293 0.0745009C55.694 -0.00125403 55.4439 -0.0193415 55.2002 0.0217601Z" fill="white"/>
<path d="M16.9579 31.112L11.2121 36.8628L8.41685 34.0651C8.10749 33.7568 7.68871 33.5837 7.25216 33.5837C6.81561 33.5837 6.39684 33.7568 6.08747 34.0651L4.1634 35.9769C3.7898 36.3505 3.55066 36.8377 3.48349 37.362C3.41632 37.8863 3.52492 38.4181 3.79225 38.874L7.20868 44.7088L0.701939 51.2259C0.358085 51.5701 0.164917 52.0369 0.164917 52.5237C0.164917 53.0104 0.358085 53.4773 0.701939 53.8215L3.16953 56.2913C3.51346 56.6354 3.97988 56.8287 4.46622 56.8287C4.95256 56.8287 5.41898 56.6354 5.76291 56.2913L12.2681 49.7742L18.0978 53.1936C18.5532 53.4611 19.0844 53.5699 19.6082 53.5029C20.1319 53.436 20.6188 53.1971 20.9924 52.8237L22.9118 50.901C23.2202 50.5916 23.3934 50.1724 23.3934 49.7353C23.3934 49.2983 23.2202 48.879 22.9118 48.5696L20.1166 45.7719L25.8624 40.0211L16.9579 31.112Z" fill="white"/>
</g>
<defs>
<clipPath id="clip0">
<rect width="57" height="57" fill="white"/>
</clipPath>
</defs>
</svg>
