<svg width="50" height="57" viewBox="0 0 50 57" fill="none" xmlns="http://www.w3.org/2000/svg">
<path d="M36.1116 5.7C33.7902 7.84863 31.6942 10.1075 29.8371 12.3763C26.7946 8.19598 23.0223 3.95549 18.75 0C7.78348 10.1498 0 23.3745 0 31.35C0 45.5165 11.1931 57 25 57C38.8069 57 50 45.5165 50 31.35C50 25.4196 44.1987 13.1879 36.1116 5.7ZM33.9386 43.6239C31.5212 45.3117 28.5402 46.3125 25.3192 46.3125C17.2667 46.3125 10.7143 40.9977 10.7143 32.3687C10.7143 28.0703 13.4275 24.2829 18.8382 17.8125C19.6116 18.7009 29.8683 31.7664 29.8683 31.7664L36.4118 24.3207C36.8739 25.0833 37.2946 25.8292 37.6696 26.544C40.7221 32.3542 39.4342 39.7887 33.9386 43.6239Z" fill="white"/>
</svg>
