<svg width="61" height="61" viewBox="0 0 61 61" fill="none" xmlns="http://www.w3.org/2000/svg">
<path fill-rule="evenodd" clip-rule="evenodd" d="M11.985 16.5856L7.73982 13.118C6.76933 12.3295 6.82831 10.84 7.82154 10.0675C13.4593 5.68675 20.9465 4.85005 27.2469 7.56897L26.6971 2.11516C26.5684 0.871355 27.6633 -0.140134 28.9119 0.0159381C35.9961 0.904796 41.882 5.60742 44.4144 11.985L47.882 7.73985C48.6706 6.76936 50.16 6.82833 50.9325 7.82156C55.3133 13.4594 56.15 20.9465 53.4311 27.2468L58.8848 26.6971C60.1286 26.5684 61.1401 27.6633 60.9841 28.9119C60.0952 35.9961 55.3926 41.882 49.015 44.4144L53.2602 47.8821C54.2273 48.6723 54.1717 50.16 53.1785 50.9325C47.5407 55.3133 40.0535 56.15 33.7532 53.4311L34.3029 58.8848C34.428 60.1274 33.3367 61.1401 32.0881 60.9841C25.0039 60.0952 19.1181 55.3926 16.5856 49.015L13.118 53.2602C12.3269 54.2282 10.84 54.1717 10.0675 53.1785C5.68671 47.5407 4.85003 40.0535 7.56896 33.7531L2.11517 34.3029C0.871353 34.428 -0.140133 33.3367 0.0159378 32.0881C0.904793 25.0039 5.6074 19.1181 11.985 16.5856ZM30.6412 34.3098C30.5942 34.3116 30.5471 34.3124 30.5 34.3124C30.4368 34.3124 30.3738 34.3109 30.311 34.3078C29.3687 34.261 28.4745 33.8661 27.8042 33.1958C27.2671 32.6587 26.9069 31.9779 26.7608 31.2438C26.755 31.2144 26.7495 31.1849 26.7443 31.1554C26.7068 30.9404 26.6876 30.7212 26.6876 30.5C26.6876 29.9969 26.7871 29.5014 26.9778 29.0411C26.9836 29.027 26.9894 29.0131 26.9954 28.9991C27.0873 28.7845 27.1992 28.5778 27.3301 28.3819C27.6096 27.9636 27.9676 27.6069 28.3819 27.3301C28.3945 27.3217 28.4072 27.3133 28.4199 27.305C28.6032 27.1857 28.7972 27.0818 29 26.995C29.4718 26.7931 29.9819 26.6876 30.5 26.6876C31.254 26.6876 31.9911 26.9112 32.6181 27.3301C32.7872 27.4431 32.9463 27.569 33.0941 27.7062C33.1286 27.7382 33.1625 27.7709 33.1958 27.8042C33.3624 27.9708 33.5124 28.1517 33.6444 28.3442C33.7943 28.5628 33.9209 28.7963 34.0222 29.041C34.0222 29.041 34.0222 29.0411 34.0222 29.0411C34.028 29.0551 34.0338 29.0691 34.0394 29.0832C34.1262 29.2999 34.1932 29.5251 34.2392 29.7562C34.3373 30.2497 34.3364 30.7551 34.2392 31.2438C34.2362 31.2587 34.2332 31.2735 34.23 31.2883C34.1818 31.5167 34.1124 31.7413 34.0222 31.959C33.8297 32.4237 33.5481 32.8435 33.1958 33.1958C33.1851 33.2066 33.1743 33.2172 33.1634 33.2278C33.0794 33.3098 32.9915 33.3881 32.8999 33.4623C32.8095 33.5356 32.7154 33.6049 32.6181 33.6699C32.5397 33.7223 32.4596 33.7716 32.378 33.8178C32.1318 33.9572 31.8716 34.0683 31.6023 34.1496C31.2914 34.2435 30.9684 34.2977 30.6412 34.3098Z" fill="white"/>
</svg>
