<svg id="Calque_2" data-name="Calque 2" xmlns="http://www.w3.org/2000/svg" viewBox="0 0 512 512" fill="#80543B"><path d="M475,481.7,383.4,336.6V271.23h12.09c28.84,0,52.22-25.05,52.22-56,0-19.23-9.07-36.2-22.87-46.26h0l-46.08-33.16a10.72,10.72,0,0,0-6.26-2C439.74,6.27,372-74.79,336.62,101.94,309.25-64.42,224.21-6.75,307.12,143.66c-10.49,8-18.86,21.79-18.86,41.59v70.83c-98.08-3.16-165.45,57.29-184.63,132.32a48.76,48.76,0,1,0-.13,86.76C109,493.8,133.37,512,155.24,512H306.73c7.7,0,14.35-6.91,14.35-14.35V476.12c0-12.89-13.56-27.9-27.91-27.9h-27.5l74.94-61,70.56,114c4.91,7.84,8.68,10.69,13.67,10.76h40.54C477.74,512,484.52,499.24,475,481.7ZM368.71,208.24a16.15,16.15,0,1,1,16.15-16.14A16.14,16.14,0,0,1,368.71,208.24Z"/></svg>
