<svg width="61" height="50" viewBox="0 0 61 50" fill="none" xmlns="http://www.w3.org/2000/svg">
<path d="M30.5383 27.6554L9.72542 48.8988C8.28688 50.3671 5.96074 50.3671 4.53751 48.8988L1.0789 45.3686C-0.359634 43.9003 -0.359634 41.5261 1.0789 40.0734L15.8315 25.0156L1.0789 9.95782C-0.359634 8.48953 -0.359634 6.11528 1.0789 4.66261L4.5222 1.10122C5.96074 -0.367073 8.28688 -0.367073 9.71011 1.10122L30.523 22.3446C31.9768 23.8129 31.9768 26.1871 30.5383 27.6554ZM59.9211 22.3446L39.1083 1.10122C37.6697 -0.367073 35.3436 -0.367073 33.9203 1.10122L30.4617 4.63136C29.0232 6.09966 29.0232 8.47391 30.4617 9.92659L45.2144 24.9844L30.4617 40.0422C29.0232 41.5105 29.0232 43.8847 30.4617 45.3374L33.9203 48.8675C35.3589 50.3358 37.685 50.3358 39.1083 48.8675L59.9211 27.6242C61.3596 26.1871 61.3596 23.8129 59.9211 22.3446Z" fill="white"/>
</svg>
