<svg width="75" height="99" viewBox="0 0 75 99" fill="none" xmlns="http://www.w3.org/2000/svg">
<path d="M73.1978 73.0543L57.802 55.616H63.6982C65.4324 55.616 66.9739 54.6526 67.7062 53.0918C68.4384 51.5503 68.1879 49.7583 67.0703 48.448L52.0214 30.952H57.59C59.3435 30.952 60.9235 29.9114 61.6172 28.3314C62.2916 26.7706 61.9833 24.9401 60.8079 23.6876L39.5544 1.04679C38.3983 -0.186414 36.2209 -0.186414 35.0648 1.04679L13.8113 23.6876C12.6359 24.9401 12.3276 26.7514 13.002 28.3314C13.6957 29.9307 15.2758 30.952 17.0292 30.952H22.5979L7.54897 48.4673C6.43138 49.7776 6.18089 51.5503 6.9131 53.0918C7.64531 54.6333 9.18682 55.5968 10.921 55.5968H16.8173L1.42149 73.035C0.265364 74.3453 -0.00440025 76.1373 0.727814 77.7173C1.46003 79.2589 3.04007 80.2608 4.77426 80.2608H31.134V84.9817L25.2955 94.3078C24.2743 96.3503 25.758 98.7781 28.051 98.7781H46.549C48.842 98.7781 50.3257 96.3695 49.3045 94.3078L43.466 85.0009V80.2801H69.845C71.5792 80.2801 73.1785 79.2781 73.8914 77.7366C74.6237 76.1566 74.3539 74.3646 73.1978 73.0543Z" fill="#537035"/>
</svg>
