<svg width="50" height="50" viewBox="0 0 50 50" fill="none" xmlns="http://www.w3.org/2000/svg">
<g clip-path="url(#clip0)">
<path d="M15.3027 25H1.5625C0.703125 25 0 25.7031 0 26.5625V29.6875C0 30.5469 0.703125 31.25 1.5625 31.25H15.4492C17.002 31.25 18.457 32.3144 18.7109 33.8477C19.0332 35.8008 17.5293 37.5 15.625 37.5C14.248 37.5 13.0762 36.6016 12.6563 35.3613C12.4512 34.7461 11.8164 34.375 11.1719 34.375H7.96875C7.01172 34.375 6.24023 35.2344 6.41602 36.1719C7.25586 40.4785 11.0645 43.75 15.6152 43.75C21.1914 43.75 25.6445 38.8574 24.9121 33.1445C24.3164 28.418 20.0586 25 15.3027 25ZM1.5625 21.875H34.375C40.2051 21.875 44.8047 16.5234 43.5352 10.4785C42.793 6.94336 39.9316 4.08203 36.3965 3.33984C30.9863 2.20703 26.1328 5.77148 25.1758 10.7129C24.9902 11.6504 25.7715 12.5 26.7188 12.5H29.9219C30.5762 12.5 31.2012 12.1289 31.4062 11.5137C31.8262 10.2734 32.998 9.375 34.375 9.375C36.2695 9.375 37.7832 11.0742 37.4609 13.0273C37.207 14.5605 35.7617 15.625 34.1992 15.625H1.5625C0.703125 15.625 0 16.3281 0 17.1875V20.3125C0 21.1719 0.703125 21.875 1.5625 21.875ZM39.0625 25H23.7988C25.6836 26.6211 27.041 28.7891 27.6855 31.25H39.0625C41.6504 31.25 43.75 33.3496 43.75 35.9375C43.75 38.5254 41.6504 40.625 39.0625 40.625C37.3145 40.625 35.8105 39.6582 35 38.2422C34.7168 37.7539 34.1504 37.5 33.584 37.5H30.2832C29.2188 37.5 28.4277 38.5547 28.7891 39.5605C30.5273 44.5019 35.6738 47.8418 41.4258 46.6211C45.4492 45.7715 48.7598 42.5586 49.6973 38.5449C51.3672 31.3965 45.9473 25 39.0625 25Z" fill="black"/>
</g>
<defs>
<clipPath id="clip0">
<rect width="50" height="50" fill="white"/>
</clipPath>
</defs>
</svg>
