<svg width="69" height="69" viewBox="0 0 69 69" fill="none" xmlns="http://www.w3.org/2000/svg">
<g clip-path="url(#clip0)">
<path d="M38.0231 42.2714L39.8893 44.1376C44.1729 44.6755 48.2838 46.276 51.7971 48.8595C52.8331 49.6166 54.3074 48.8462 54.1945 47.5644C53.9422 44.5095 53.1054 41.4678 51.6974 38.5722C46.8825 38.2999 42.0942 39.595 38.0231 42.2714ZM37.4387 56.5633C40.3741 53.6279 40.3675 48.8661 37.4321 45.9307L33.4872 41.9858C40.8324 35.4641 50.9868 33.8503 59.7001 37.2506C60.8956 37.7155 62.1175 36.5865 61.6859 35.3844C60.4572 31.9509 58.4781 28.7233 55.7287 25.9738C51.0267 21.2718 44.3722 19.1466 37.7309 19.2794C36.0108 19.3126 34.4568 19.472 32.9692 19.6845L40.1351 7.73696C40.6664 6.84703 40.1616 5.70474 39.1455 5.48558C36.2034 4.85466 30.3193 4.68199 23.9039 10.5927C23.3527 11.1041 23.014 11.828 22.9608 12.5851L22.3565 20.6409L17.2494 25.748C11.3785 31.6188 11.3719 41.1225 17.2427 46.9933L27.8753 57.6259L30.0005 64.0015L37.4387 56.5633ZM31.0565 50.1811C31.6409 49.5967 32.5972 49.5967 33.1817 50.1811C33.7661 50.7655 33.7661 51.7219 33.1817 52.3063C32.5972 52.8907 31.6409 52.8907 31.0565 52.3063C30.4721 51.7219 30.4721 50.7655 31.0565 50.1811Z" fill="#F77A33"/>
</g>
<defs>
<clipPath id="clip0">
<rect width="48.0877" height="48.0877" fill="white" transform="translate(68.2531 34.2469) rotate(135)"/>
</clipPath>
</defs>
</svg>
