<svg width="57" height="57" viewBox="0 0 57 57" fill="none" xmlns="http://www.w3.org/2000/svg">
<path d="M57.0007 0C51.2361 0.396328 10.7372 4.25273 7.90613 32.0191C7.56213 34.9871 7.36731 37.9685 7.23928 40.9521L27.1525 21.0588C27.8483 20.363 28.9783 20.363 29.6741 21.0588C30.3699 21.7546 30.3699 22.8824 29.6741 23.5782L0.784475 52.4389C-0.259783 53.482 -0.259783 55.1742 0.784475 56.2174C1.82873 57.2605 3.52203 57.2605 4.5674 56.2174L10.9276 49.8639C15.6134 49.8483 20.2958 49.5822 24.9505 49.0445C30.9043 48.4389 35.7515 46.0976 39.7104 42.75H28.4718L44.8136 37.3083C46.0661 35.6506 47.1927 33.8894 48.2036 32.0625H39.1704L51.0313 26.1387C55.6971 14.7911 56.7992 2.92348 57.0007 0Z" fill="white"/>
</svg>
