<svg width="217" height="85" viewBox="0 0 217 85" fill="none" xmlns="http://www.w3.org/2000/svg">
<path fill-rule="evenodd" clip-rule="evenodd" d="M109.187 84.102C70.1444 84.102 38.1465 72.7804 35.2202 58.406C14.3055 53.4814 0.400146 44.7491 0.400146 34.7976C0.400146 19.4177 33.6137 6.94981 74.5846 6.94981C80.3624 6.94981 85.9859 7.19776 91.3838 7.66687C104.661 2.97617 122.544 0.10199 142.216 0.10199C183.187 0.101993 216.4 12.5699 216.4 27.9498C216.4 37.7951 202.79 46.447 182.247 51.3991C182.986 52.9758 183.371 54.5981 183.371 56.2542C183.371 71.6341 150.157 84.102 109.187 84.102ZM167.414 18.4045C168.511 19.1468 169.942 19.6258 171.435 19.7754C171.997 19.8293 172.4 20.2723 172.393 20.7512V22.643C172.393 23.1878 171.865 23.6487 171.233 23.6009C169.275 23.4512 167.358 22.9064 165.74 22.0563C161.921 24.0977 156.331 24.1277 152.407 22.0563C148.588 24.0977 142.997 24.1277 139.074 22.0563C137.456 22.9244 135.56 23.4572 133.56 23.6068C132.928 23.6547 132.4 23.1938 132.4 22.649V20.7213C132.4 20.2484 132.796 19.8293 133.345 19.7814C134.852 19.6437 136.275 19.1708 137.352 18.4404C138.31 17.7879 139.685 17.6502 140.622 18.3207C143.282 20.2184 148.067 20.2244 150.706 18.4225C151.657 17.7699 153.011 17.6442 153.949 18.3147C156.622 20.2244 161.435 20.2244 164.067 18.4045C165.039 17.728 166.435 17.74 167.414 18.4045ZM134.035 61.7756C132.542 61.6259 131.111 61.147 130.014 60.4047C129.035 59.7402 127.639 59.7282 126.667 60.4047C124.035 62.2246 119.222 62.2246 116.549 60.3149C115.611 59.6444 114.257 59.7701 113.306 60.4226C110.667 62.2246 105.882 62.2186 103.222 60.3208C102.285 59.6504 100.91 59.788 99.9514 60.4406C98.875 61.1709 97.4514 61.6439 95.9444 61.7816C95.3958 61.8295 95 62.2485 95 62.7215V64.6491C95 65.1939 95.5278 65.6549 96.1597 65.607C98.1597 65.4573 100.056 64.9245 101.674 64.0565C105.597 66.1278 111.188 66.0979 115.007 64.0565C118.931 66.1278 124.521 66.0979 128.34 64.0565C129.958 64.9066 131.875 65.4513 133.833 65.601C134.465 65.6489 134.993 65.1879 134.993 64.6432V62.7514C135 62.2725 134.597 61.8295 134.035 61.7756ZM71.0139 30.4704C72.1111 31.2127 73.5417 31.6916 75.0347 31.8413C75.5972 31.8952 76 32.3382 75.9931 32.8171V34.7089C75.9931 35.2537 75.4653 35.7146 74.8333 35.6667C72.875 35.5171 70.9583 34.9723 69.3403 34.1222C65.5208 36.1636 59.9306 36.1935 56.0069 34.1222C52.1875 36.1636 46.5972 36.1935 42.6736 34.1222C41.0556 34.9902 39.1597 35.5231 37.1597 35.6727C36.5278 35.7206 36 35.2596 36 34.7149V32.7872C36 32.3143 36.3958 31.8952 36.9444 31.8473C38.4514 31.7096 39.875 31.2367 40.9514 30.5063C41.9097 29.8538 43.2847 29.7161 44.2222 30.3866C46.8819 32.2843 51.6667 32.2903 54.3056 30.4883C55.2569 29.8358 56.6111 29.7101 57.5486 30.3806C60.2222 32.2903 65.0347 32.2903 67.6667 30.4704C68.6389 29.7939 70.0347 29.8059 71.0139 30.4704Z" fill="#A5E9FF"/>
</svg>
