<svg width="65" height="51" viewBox="0 0 65 51" fill="none" xmlns="http://www.w3.org/2000/svg">
<path d="M0 9.75147V49.1763C0 50.465 1.28984 51.3461 2.47587 50.8679L18.0556 43.7143V0L2.27049 6.36931C1.60037 6.63969 1.02593 7.1064 0.621235 7.70924C0.216541 8.31208 0.000160492 9.0234 0 9.75147H0ZM21.6667 43.7143L43.3333 51V7.28571L21.6667 0V43.7143ZM62.5241 0.132054L46.9444 7.28571V51L62.7295 44.6307C63.3997 44.3604 63.9742 43.8938 64.379 43.2909C64.7837 42.688 65 41.9766 65 41.2485V1.82371C65 0.535045 63.7102 -0.346071 62.5241 0.132054V0.132054Z" fill="white"/>
</svg>
