<svg width="180" height="180" viewBox="0 0 180 180" fill="none" xmlns="http://www.w3.org/2000/svg">
<path d="M132.324 11.3828H47.9263C31.4412 11.3818 15.1826 7.54354 0.4375 0.171875L0.4375 33.8047C0.4375 39.9952 5.4579 45.0156 11.6484 45.0156H22.8594V67.4375H6.04297C2.94595 67.4375 0.4375 69.9459 0.4375 73.043V84.2539C0.4375 87.3509 2.94595 89.8594 6.04297 89.8594H22.8594V173.941C22.8594 177.038 25.3678 179.547 28.4648 179.547H39.6758C42.7728 179.547 45.2812 177.038 45.2812 173.941V89.8594H134.969V173.941C134.969 177.038 137.477 179.547 140.574 179.547H151.785C154.882 179.547 157.391 177.038 157.391 173.941V89.8594H174.207C177.304 89.8594 179.812 87.3509 179.812 84.2539V73.043C179.812 69.9459 177.304 67.4375 174.207 67.4375H157.391V45.0156H168.602C174.792 45.0156 179.812 39.9952 179.812 33.8047V0.171875C165.067 7.54354 148.809 11.3818 132.324 11.3828V11.3828ZM45.2812 45.0156H78.9141V67.4375H45.2812V45.0156ZM134.969 67.4375H101.336V45.0156H134.969V67.4375Z" fill="#C74242"/>
</svg>
