<svg width="50" height="50" viewBox="0 0 50 50" fill="none" xmlns="http://www.w3.org/2000/svg">
<g clip-path="url(#clip0)">
<path d="M48.4614 30.2227L37.7192 31.7305L41.8032 41.9199C42.4546 43.5449 40.6704 45.0625 39.2065 44.1299L30.0229 38.2812L26.6938 48.748C26.4292 49.583 25.7143 50 24.9995 50C24.2846 50 23.5698 49.583 23.3051 48.748L19.976 38.2803L10.7924 44.1289C9.32857 45.0615 7.54537 43.5439 8.19576 41.9189L12.2797 31.7295L1.53756 30.2227C-0.175335 29.9824 -0.579632 27.6572 0.948689 26.8369L10.5346 21.6943L3.26119 13.5361C2.19478 12.3398 3.09322 10.5156 4.55904 10.5156C4.68697 10.5156 4.81978 10.5293 4.9565 10.5596L15.559 12.8691L15.1577 1.87793C15.1157 0.740235 16.0239 0.000976682 16.9555 0.000976682C17.4585 0.000976682 17.9702 0.216796 18.3422 0.702148L25.0005 9.38379L31.6587 0.702148C32.0307 0.216796 32.5415 0.000976682 33.0454 0.000976682C33.977 0.000976682 34.8852 0.740235 34.8432 1.87793L34.4419 12.8691L45.0444 10.5596C46.7397 10.1924 47.8969 12.2393 46.7387 13.5371L39.4653 21.6953L49.0512 26.8379C50.5786 27.6572 50.1743 29.9824 48.4614 30.2227V30.2227ZM33.0571 19.5625L27.9897 20.666L28.1821 15.4131L24.9995 19.5625L21.8169 15.4131L22.0083 20.666L16.9409 19.5625L20.4174 23.4619L15.8354 25.9199L20.9692 26.6406L19.0171 31.5107L23.4067 28.7158L24.9995 33.7187L26.5903 28.7158L30.9799 31.5107L29.0278 26.6406L34.1616 25.9199L29.5796 23.4619L33.0571 19.5625Z" fill="#3A3988"/>
</g>
<defs>
<clipPath id="clip0">
<rect width="50" height="50" fill="white" transform="matrix(1 0 0 -1 0 50)"/>
</clipPath>
</defs>
</svg>
