<svg width="42" height="42" viewBox="0 0 42 42" fill="none" xmlns="http://www.w3.org/2000/svg">
<path d="M21.001 13.125C16.6614 13.125 13.1256 16.6605 13.1256 21C13.1256 25.3395 16.6614 28.875 21.001 28.875C25.3407 28.875 28.8764 25.3395 28.8764 21C28.8764 16.6605 25.3407 13.125 21.001 13.125ZM41.2145 19.7285L33.4458 15.8484L36.1939 7.6125C36.5631 6.49688 35.5048 5.43867 34.3974 5.81602L26.161 8.56406L22.2726 0.7875C21.7475 -0.2625 20.2545 -0.2625 19.7295 0.7875L15.8492 8.55586L7.60467 5.80781C6.48899 5.43867 5.43073 6.49687 5.80809 7.6043L8.55627 15.8402L0.787538 19.7285C-0.262513 20.2535 -0.262513 21.7465 0.787538 22.2715L8.55627 26.1516L5.80809 34.3957C5.43894 35.5113 6.49719 36.5695 7.60467 36.1922L15.841 33.4441L19.7213 41.2125C20.2463 42.2625 21.7393 42.2625 22.2644 41.2125L26.1446 33.4441L34.381 36.1922C35.4966 36.5613 36.5549 35.5031 36.1775 34.3957L33.4294 26.1598L41.1981 22.2797C42.2646 21.7465 42.2645 20.2535 41.2145 19.7285V19.7285ZM28.4252 28.4238C24.3316 32.5172 17.6704 32.5172 13.5768 28.4238C9.48327 24.3305 9.48327 17.6695 13.5768 13.5762C17.6704 9.48281 24.3316 9.48281 28.4252 13.5762C32.5188 17.6695 32.5188 24.3305 28.4252 28.4238Z" fill="#FFD12F"/>
</svg>
