<svg width="66" height="66" viewBox="0 0 66 66" fill="none" xmlns="http://www.w3.org/2000/svg">
<path d="M33 20.625C26.1809 20.625 20.625 26.0967 20.625 32.8125C20.625 39.5283 26.1809 45 33 45C39.8191 45 45.375 39.5283 45.375 32.8125C45.375 26.0967 39.8191 20.625 33 20.625ZM64.7625 30.8447L52.5551 24.8398L56.8734 12.0938C57.4535 10.3672 55.7906 8.72949 54.0504 9.31348L41.1082 13.5664L34.998 1.53125C34.173 -0.09375 31.827 -0.09375 31.002 1.53125L24.9047 13.5537L11.9496 9.30078C10.1965 8.72949 8.53359 10.3672 9.12656 12.0811L13.4449 24.8271L1.2375 30.8447C-0.4125 31.6572 -0.4125 33.9678 1.2375 34.7803L13.4449 40.7852L9.12656 53.5439C8.54648 55.2705 10.2094 56.9082 11.9496 56.3242L24.8918 52.0713L30.9891 64.0938C31.8141 65.7188 34.1602 65.7188 34.9852 64.0938L41.0824 52.0713L54.0246 56.3242C55.7777 56.8955 57.4406 55.2578 56.8477 53.5439L52.5293 40.7979L64.7367 34.793C66.4125 33.9678 66.4125 31.6572 64.7625 30.8447ZM44.666 44.3018C38.2336 50.6367 27.7664 50.6367 21.334 44.3018C14.9016 37.9668 14.9016 27.6582 21.334 21.3232C27.7664 14.9883 38.2336 14.9883 44.666 21.3232C51.0984 27.6582 51.0984 37.9668 44.666 44.3018Z" fill="#FFD12F"/>
</svg>
